<svg width="89" height="60" viewBox="0 0 89 60" fill="none" xmlns="http://www.w3.org/2000/svg">
<path d="M42.8673 15.1666C43.8658 14.416 44.2595 13.2365 43.7392 12.1881C43.4158 11.5566 43.0642 10.9371 42.6705 10.3414L42.2345 9.69805C41.8127 9.10234 41.3486 8.51855 40.8564 7.95859C40.0548 7.05313 38.6486 6.75527 37.383 7.11269L33.4173 8.2207C31.9126 7.17227 30.183 6.31445 28.3267 5.73066L27.4689 2.27559C27.2017 1.16758 26.1892 0.285938 24.8673 0.154883C23.9392 0.0476563 22.997 0 22.0408 0H21.9423C20.9861 0 20.0439 0.0476562 19.1158 0.142969C17.7939 0.274023 16.7814 1.16758 16.5142 2.26367L15.6564 5.73066C13.7861 6.32637 12.0705 7.17227 10.5658 8.2207L6.58609 7.12461C5.32046 6.76719 3.91421 7.06504 3.11265 7.97051C2.62046 8.53047 2.1564 9.11426 1.72046 9.70996L1.29859 10.3414C0.904837 10.9371 0.553275 11.5566 0.229838 12.2C-0.290475 13.2365 0.103275 14.416 1.10171 15.1785L4.22359 17.5375C4.0689 18.3357 3.98452 19.1697 3.98452 20.0156C3.98452 20.8615 4.0689 21.6955 4.22359 22.5057L1.10171 24.8646C0.103275 25.6152 -0.290475 26.7947 0.229838 27.8432C0.553275 28.4746 0.904837 29.0941 1.29859 29.7018L1.72046 30.3213C2.14234 30.9289 2.6064 31.5008 3.11265 32.0607C3.91421 32.9662 5.32046 33.2641 6.58609 32.9066L10.5517 31.7986C12.0564 32.8471 13.7861 33.7049 15.6423 34.2887L16.5002 37.7557C16.7673 38.8637 17.7798 39.7453 19.1017 39.8764C20.0439 39.9717 21.0001 40.0193 21.9705 40.0193C22.9408 40.0193 23.897 39.9717 24.8392 39.8764C26.1611 39.7453 27.1736 38.8518 27.4408 37.7557L28.2986 34.2887C30.1689 33.693 31.8845 32.8471 33.3892 31.7986L37.3548 32.9066C38.6205 33.2641 40.0267 32.9662 40.8283 32.0607C41.3205 31.5008 41.7845 30.9289 42.2064 30.3213L42.6423 29.6779C43.0361 29.0822 43.3877 28.4627 43.7111 27.8313C44.2314 26.7947 43.8377 25.6152 42.8392 24.8527L39.7173 22.4937C39.872 21.6836 39.9564 20.8496 39.9564 20.0037C39.9564 19.1578 39.872 18.3238 39.7173 17.5137L42.8392 15.1547L42.8673 15.1666ZM15.2345 20.0156C15.2345 18.4989 15.9457 17.0443 17.2116 15.9719C18.4774 14.8994 20.1943 14.2969 21.9845 14.2969C23.7747 14.2969 25.4916 14.8994 26.7575 15.9719C28.0234 17.0443 28.7345 18.4989 28.7345 20.0156C28.7345 21.5323 28.0234 22.9869 26.7575 24.0594C25.4916 25.1319 23.7747 25.7344 21.9845 25.7344C20.1943 25.7344 18.4774 25.1319 17.2116 24.0594C15.9457 22.9869 15.2345 21.5323 15.2345 20.0156ZM70.458 58.6768C71.3439 59.5227 72.7361 59.8563 73.9736 59.4154C74.7189 59.1414 75.4501 58.8436 76.1533 58.51L76.9127 58.1406C77.6158 57.7832 78.3048 57.39 78.9658 56.973C80.0345 56.2939 80.3861 55.1025 79.9642 54.0303L78.6564 50.6705C79.8939 49.3957 80.9064 47.9303 81.5955 46.3576L85.6877 45.6309C86.9955 45.4045 88.0361 44.5467 88.1908 43.4268C88.3033 42.6285 88.3595 41.8184 88.3595 40.9963C88.3595 40.1742 88.3033 39.3641 88.1908 38.5658C88.0361 37.4459 86.9814 36.5881 85.6877 36.3617L81.5955 35.623C80.8923 34.0385 79.8939 32.585 78.6564 31.3102L79.9642 27.9504C80.3861 26.8781 80.0345 25.6867 78.9658 25.0076C78.3048 24.5906 77.6158 24.1975 76.9127 23.8281L76.1673 23.4707C75.4642 23.1371 74.733 22.8393 73.9736 22.5652C72.7502 22.1244 71.358 22.458 70.458 23.3039L67.6736 25.9488C66.7173 25.8178 65.733 25.7463 64.7345 25.7463C63.7361 25.7463 62.7517 25.8178 61.7955 25.9488L59.0111 23.3039C58.1251 22.458 56.733 22.1244 55.4955 22.5652C54.7501 22.8393 54.0189 23.1371 53.3017 23.4707L52.5705 23.8281C51.8533 24.1855 51.1783 24.5787 50.5173 25.0076C49.4486 25.6867 49.097 26.8781 49.5189 27.9504L50.8267 31.3102C49.5892 32.585 48.5767 34.0504 47.8877 35.623L43.7955 36.3379C42.4877 36.5643 41.447 37.4221 41.2923 38.542C41.1798 39.3402 41.1236 40.1504 41.1236 40.9725C41.1236 41.7945 41.1798 42.6047 41.2923 43.4029C41.447 44.5229 42.5017 45.3807 43.7955 45.607L47.8877 46.3338C48.5908 47.9184 49.5892 49.3719 50.8267 50.6467L49.5189 54.0064C49.097 55.0787 49.4486 56.2701 50.5173 56.9492C51.1783 57.3662 51.8533 57.7594 52.5705 58.1168L53.3298 58.4861C54.033 58.8197 54.7642 59.1176 55.5095 59.3916C56.733 59.8324 58.1252 59.4988 59.0252 58.6529L61.8095 56.008C62.7658 56.1391 63.7502 56.2105 64.7486 56.2105C65.747 56.2105 66.7314 56.1391 67.6877 56.008L70.472 58.6529L70.458 58.6768ZM64.7345 35.2656C65.6209 35.2656 66.4987 35.4135 67.3176 35.7009C68.1366 35.9883 68.8807 36.4096 69.5075 36.9406C70.1343 37.4716 70.6315 38.1021 70.9707 38.7959C71.3099 39.4897 71.4845 40.2334 71.4845 40.9844C71.4845 41.7354 71.3099 42.479 70.9707 43.1728C70.6315 43.8667 70.1343 44.4971 69.5075 45.0281C68.8807 45.5592 68.1366 45.9804 67.3176 46.2678C66.4987 46.5552 65.6209 46.7031 64.7345 46.7031C63.8481 46.7031 62.9704 46.5552 62.1514 46.2678C61.3325 45.9804 60.5884 45.5592 59.9616 45.0281C59.3348 44.4971 58.8376 43.8667 58.4983 43.1728C58.1591 42.479 57.9845 41.7354 57.9845 40.9844C57.9845 40.2334 58.1591 39.4897 58.4983 38.7959C58.8376 38.1021 59.3348 37.4716 59.9616 36.9406C60.5884 36.4096 61.3325 35.9883 62.1514 35.7009C62.9704 35.4135 63.8481 35.2656 64.7345 35.2656Z" fill="#D8D8D8"/>
</svg>
